<?xml version="1.0" encoding="UTF-8" standalone="no"?>
<svg width="1024" height="1024" viewBox="0 0 1024 1024" version="1.1" xmlns="http://www.w3.org/2000/svg">
    <defs>
        <clipPath id="masterClip"><circle cx="355" cy="370" r="255" /></clipPath>
        <clipPath id="ultraClip"><circle cx="640" cy="420" r="195" /></clipPath>
        <clipPath id="pokeClip"><circle cx="540" cy="620" r="215" /></clipPath>
        <clipPath id="premierClip"><circle cx="790" cy="675" r="165" /></clipPath>
        <clipPath id="greatClip"><circle cx="260" cy="790" r="130" /></clipPath>
        <filter id="shadow" x="-25%" y="-25%" width="150%" height="150%">
            <feDropShadow dx="0" dy="16" stdDeviation="14" flood-color="#020617" flood-opacity="0.45" />
        </filter>
    </defs>

    <g stroke-linecap="round" stroke-linejoin="round" filter="url(#shadow)">
        <g>
            <circle cx="355" cy="370" r="255" fill="#6d28d9" stroke="#111827" stroke-width="18" />
            <g clip-path="url(#masterClip)">
                <rect x="100" y="370" width="510" height="255" fill="#f8fafc" />
                <rect x="100" y="355" width="510" height="28" fill="#111827" />
                <path d="M190 220 L160 155 L210 140 L255 190 Z" fill="#f472b6" stroke="#111827" stroke-width="14" />
                <path d="M520 220 L550 155 L500 140 L455 190 Z" fill="#f472b6" stroke="#111827" stroke-width="14" />
            </g>
            <circle cx="355" cy="370" r="42" fill="#f1f5f9" stroke="#111827" stroke-width="14" />
            <circle cx="355" cy="370" r="16" fill="#d1d5db" />
        </g>

        <g>
            <circle cx="640" cy="420" r="195" fill="#111827" stroke="#0b0f19" stroke-width="16" />
            <g clip-path="url(#ultraClip)">
                <rect x="445" y="420" width="390" height="195" fill="#f8fafc" />
                <rect x="445" y="406" width="390" height="26" fill="#111827" />
                <path d="M470 280 L560 350 L640 280 L720 350 L810 280" fill="none" stroke="#facc15" stroke-width="30" />
            </g>
            <circle cx="640" cy="420" r="36" fill="#f8fafc" stroke="#111827" stroke-width="12" />
            <circle cx="640" cy="420" r="13" fill="#cbd5e1" />
        </g>

        <g>
            <circle cx="790" cy="675" r="165" fill="#ffffff" stroke="#111827" stroke-width="14" />
            <g clip-path="url(#premierClip)">
                <rect x="625" y="664" width="330" height="22" fill="#111827" />
                <path d="M732 530 Q790 500 848 530" fill="none" stroke="#ef4444" stroke-width="17" />
                <path d="M740 570 L760 640" fill="none" stroke="#ef4444" stroke-width="16" />
                <path d="M840 570 L820 640" fill="none" stroke="#ef4444" stroke-width="16" />
            </g>
            <circle cx="790" cy="675" r="31" fill="#f8fafc" stroke="#ef4444" stroke-width="10" />
            <circle cx="790" cy="675" r="11" fill="#d1d5db" />
        </g>

        <g>
            <circle cx="540" cy="620" r="215" fill="#ef4444" stroke="#111827" stroke-width="16" />
            <g clip-path="url(#pokeClip)">
                <rect x="325" y="620" width="430" height="215" fill="#ffffff" />
                <rect x="325" y="607" width="430" height="26" fill="#111827" />
            </g>
            <circle cx="540" cy="620" r="38" fill="#f8fafc" stroke="#111827" stroke-width="12" />
            <circle cx="540" cy="620" r="14" fill="#cbd5e1" />
        </g>

        <g>
            <circle cx="260" cy="790" r="130" fill="#1d4ed8" stroke="#111827" stroke-width="13" />
            <g clip-path="url(#greatClip)">
                <rect x="130" y="790" width="260" height="130" fill="#f8fafc" />
                <rect x="130" y="781" width="260" height="18" fill="#111827" />
                <path d="M162 680 L208 758" fill="none" stroke="#ef4444" stroke-width="18" />
                <path d="M358 680 L312 758" fill="none" stroke="#ef4444" stroke-width="18" />
            </g>
            <circle cx="260" cy="790" r="24" fill="#f8fafc" stroke="#111827" stroke-width="8" />
            <circle cx="260" cy="790" r="9" fill="#cbd5e1" />
        </g>
    </g>

    <g stroke="#cbd5e1" stroke-width="9" fill="none" stroke-linecap="round" opacity="0.7">
        <path d="M120 350 Q95 370 108 398" />
        <path d="M882 305 Q910 325 898 350" />
        <path d="M128 700 Q92 730 116 760" />
        <path d="M914 624 Q944 650 930 682" />
        <path d="M478 862 Q510 883 545 875" />
    </g>
</svg>